<?xml version="1.0" standalone="no"?>
<!DOCTYPE svg PUBLIC "-//W3C//DTD SVG 20010904//EN"
 "http://www.w3.org/TR/2001/REC-SVG-20010904/DTD/svg10.dtd">
<svg version="1.0" xmlns="http://www.w3.org/2000/svg"
 width="176.000000pt" height="176.000000pt" viewBox="0 0 176.000000 176.000000"
 preserveAspectRatio="xMidYMid meet">
<metadata>
Created by potrace 1.14, written by Peter Selinger 2001-2017
</metadata>
<g transform="translate(0.000000,176.000000) scale(0.100000,-0.100000)"
fill="#000000" stroke="none">
<path d="M394 1570 c-10 -3 -29 -5 -41 -4 -12 0 -24 -4 -26 -10 -2 -6 -3 -299
-3 -650 1 -560 3 -639 16 -642 8 -1 26 -4 40 -7 20 -3 26 -10 28 -39 3 -29 8
-37 29 -41 35 -6 227 -2 240 6 10 6 10 529 0 725 -2 56 0 72 11 72 7 0 11 -4
7 -9 -3 -5 0 -15 7 -23 7 -7 14 -20 16 -28 2 -8 15 -40 30 -70 14 -30 25 -58
24 -62 -1 -5 2 -8 8 -8 5 0 9 -4 7 -8 -4 -13 26 -82 35 -82 5 0 7 -4 3 -9 -3
-5 -1 -12 5 -16 6 -4 8 -10 5 -15 -3 -5 -1 -11 5 -15 5 -3 10 -15 10 -26 0
-10 5 -19 11 -19 5 0 7 -4 4 -10 -3 -5 -1 -10 4 -10 6 0 10 -3 9 -7 -1 -5 6
-25 15 -46 9 -20 15 -39 14 -41 -1 -1 4 -10 11 -18 7 -9 15 -26 17 -39 3 -12
10 -26 17 -31 7 -4 10 -8 5 -8 -4 0 -1 -10 7 -23 8 -12 16 -25 16 -29 6 -31
14 -48 22 -48 5 0 6 -5 2 -12 -5 -8 0 -9 15 -5 16 4 26 -1 39 -21 9 -15 20
-30 25 -33 5 -3 8 -10 6 -15 -1 -5 16 -12 37 -16 45 -7 273 -3 301 6 19 6 19
27 19 659 l-1 652 -42 3 c-41 3 -43 5 -44 35 -1 18 -1 36 0 40 2 10 -169 5
-175 -5 -3 -5 -9 -6 -13 -4 -4 3 -23 -8 -42 -25 -19 -17 -27 -27 -19 -23 13 7
13 6 0 -10 -8 -10 -16 -28 -18 -39 -6 -28 -6 -503 0 -629 3 -54 3 -98 1 -98
-9 0 -28 26 -31 42 -2 16 -21 59 -75 178 -11 25 -21 47 -22 50 -1 3 -7 19 -14
35 -59 136 -75 171 -80 175 -3 3 -7 12 -9 20 -4 24 -36 94 -45 101 -5 3 -7 9
-5 12 5 8 -34 97 -42 97 -4 0 -7 8 -6 17 1 12 -7 18 -21 19 -27 2 -55 23 -47
35 3 5 1 9 -4 9 -5 0 -12 8 -14 18 -3 10 -11 19 -19 20 -50 6 -249 7 -265 2z"/>
</g>
</svg>
