<?xml version="1.0" standalone="no"?>
<!DOCTYPE svg PUBLIC "-//W3C//DTD SVG 20010904//EN"
 "http://www.w3.org/TR/2001/REC-SVG-20010904/DTD/svg10.dtd">
<svg version="1.0" xmlns="http://www.w3.org/2000/svg"
 width="500.000000pt" height="500.000000pt" viewBox="0 0 500.000000 500.000000"
 preserveAspectRatio="xMidYMid meet">
<metadata>
Created by potrace 1.14, written by Peter Selinger 2001-2017
</metadata>
<g transform="translate(0.000000,500.000000) scale(0.100000,-0.100000)"
fill="#000000" stroke="none">
<path d="M619 4996 c-2 -3 -16 -7 -29 -9 -14 -3 -32 -8 -40 -11 -8 -3 -26 -7
-40 -10 -14 -2 -38 -10 -55 -17 -16 -7 -33 -12 -37 -11 -5 1 -8 -2 -8 -8 0 -5
-3 -9 -7 -8 -13 3 -63 -24 -63 -34 0 -4 -3 -7 -7 -7 -20 3 -34 -2 -29 -10 3
-5 -8 -14 -24 -21 -17 -7 -30 -18 -30 -26 0 -7 -5 -16 -12 -20 -7 -5 -8 -3 -3
7 5 8 -3 3 -18 -11 -15 -14 -27 -30 -27 -37 0 -6 -5 -15 -12 -19 -7 -5 -9 -2
-3 7 4 8 -4 1 -18 -16 -14 -16 -31 -42 -38 -57 -6 -16 -16 -28 -21 -28 -5 0
-6 -4 -3 -10 3 -5 3 -10 -2 -10 -4 0 -13 -11 -20 -25 -8 -19 -8 -23 0 -18 7 3
5 -2 -4 -13 -16 -18 -32 -57 -35 -79 0 -5 -6 -28 -12 -49 -6 -22 -9 -43 -6
-47 2 -4 0 -10 -6 -14 -12 -7 -14 -3765 -2 -3765 4 0 8 -12 9 -27 2 -48 14
-98 26 -105 7 -4 8 -8 3 -8 -5 0 -3 -6 3 -13 6 -8 8 -17 4 -20 -3 -4 2 -16 13
-28 10 -12 19 -24 18 -28 -2 -14 9 -41 16 -41 5 0 12 -9 15 -21 4 -11 22 -36
40 -55 18 -19 31 -34 29 -34 -2 0 6 -11 18 -25 11 -13 26 -22 31 -18 6 3 8 2
5 -3 -3 -5 0 -15 8 -22 8 -7 14 -10 14 -6 0 4 8 -2 18 -14 10 -11 25 -22 33
-24 8 -2 20 -11 27 -20 7 -10 22 -18 33 -18 10 0 19 -4 19 -10 0 -5 3 -9 7 -8
5 0 24 -6 43 -15 19 -8 38 -13 42 -11 5 3 8 0 8 -6 0 -7 7 -10 15 -7 8 4 17 2
21 -4 3 -6 12 -8 19 -5 7 2 16 2 19 -2 4 -3 14 -8 24 -11 26 -8 3775 -12 3792
-4 8 3 23 7 33 8 9 2 20 4 25 5 4 1 12 3 17 5 6 1 12 3 15 4 8 4 44 12 58 13
6 1 12 5 12 10 0 5 4 7 9 4 9 -6 104 42 109 56 2 4 7 6 12 3 4 -2 20 7 34 20
15 14 31 25 37 25 5 0 9 7 9 17 0 9 3 14 6 11 8 -9 94 73 88 84 -3 4 -1 8 4 8
11 0 40 41 44 62 2 7 5 15 8 18 16 15 49 83 45 91 -4 5 -1 9 6 9 7 0 10 3 7 6
-4 3 0 21 8 40 8 19 11 34 8 34 -4 0 -2 6 4 12 5 7 8 23 6 35 -2 12 1 25 6 28
12 7 14 3765 3 3765 -5 0 -8 12 -9 28 -1 39 -45 182 -54 177 -4 -3 -11 11 -14
30 -4 19 -11 35 -16 35 -6 0 -10 7 -10 15 0 8 -4 15 -10 15 -5 0 -9 6 -7 13 1
6 -4 11 -11 9 -8 -1 -11 2 -7 8 3 5 -1 13 -9 16 -9 3 -14 9 -12 13 2 3 -18 28
-45 55 -27 26 -49 45 -49 40 0 -4 -12 6 -26 22 -15 16 -23 22 -19 14 5 -8 -2
-5 -14 8 -12 12 -26 20 -32 17 -5 -4 -9 -2 -9 3 0 11 -85 53 -111 55 -11 1
-19 5 -19 10 0 5 -6 7 -14 4 -8 -3 -17 -3 -20 1 -4 3 -14 8 -24 10 -9 2 -28 6
-42 10 -27 7 -3784 15 -3791 8z m4211 -4740 c0 -2 -8 -10 -17 -17 -16 -13 -17
-12 -4 4 13 16 21 21 21 13z"/>
</g>
</svg>
