<svg xmlns:xlink="http://www.w3.org/1999/xlink" xmlns="http://www.w3.org/2000/svg" class="h-10 w-10 shrink-0 transform-cpu rounded-lg shadow-md shadow-sky-500/[.12]" viewBox="0 0 40 40" fill="none" stroke-width="1.5" stroke-linecap="round" stroke-linejoin="round" width="40"  height="40" ><path d="M.75 8A7.25 7.25 0 018 .75h24A7.25 7.25 0 0139.25 8v24A7.25 7.25 0 0132 39.25H8A7.25 7.25 0 01.75 32V8z" class="fill-sky-50 stroke-sky-500" stroke="#003326" fill="#E6FEF9" stroke-width="1.5px"></path><path d="M24.847 33.25L19.82 20.113c-.324-.846.543-1.656 1.351-1.261L33.25 24.75l-6.426 2-1.977 6.5z" class="fill-white stroke-sky-500" stroke="#003326" fill="#FFFFFF" stroke-width="1.5px"></path><path d="M33.25 20.25V9.75a3 3 0 00-3-3H9.75a3 3 0 00-3 3v20.5a3 3 0 003 3h10.5" class="stroke-sky-500/40" stroke-opacity="0.4" stroke="#003326" fill="none" stroke-width="1.5px"></path><path d="M11.75 11.75v16.5" class="stroke-sky-500" stroke="#003326" fill="none" stroke-width="1.5px"></path></svg>