<svg xmlns:xlink="http://www.w3.org/1999/xlink" xmlns="http://www.w3.org/2000/svg" class="h-10 w-10 shrink-0 transform-cpu rounded-lg shadow-md shadow-sky-500/[.12]" viewBox="0 0 40 40" fill="none" stroke-width="1.5" stroke-linecap="round" stroke-linejoin="round" width="40"  height="40" ><path d="M.75 8A7.25 7.25 0 018 .75h24A7.25 7.25 0 0139.25 8v24A7.25 7.25 0 0132 39.25H8A7.25 7.25 0 01.75 32V8z" class="fill-sky-50 stroke-sky-500" stroke="#003326" fill="#E6FEF9" stroke-width="1.5px"></path><path opacity="0.4" d="M17.25 33.25h-8.5a2 2 0 01-2-2V8.75a2 2 0 012-2h22.5a2 2 0 012 2v1m-4 3h-18.5" class="stroke-sky-500/40" stroke-opacity="0.4" stroke="#003326" fill="none" stroke-width="1.5px"></path><path d="M31.25 12.75h-8.5a2 2 0 00-2 2v16.5a2 2 0 002 2h8.5a2 2 0 002-2v-16.5a2 2 0 00-2-2z" class="fill-white stroke-sky-500" stroke="#003326" fill="#FFFFFF" stroke-width="1.5px"></path><path d="M26.75 30.25h.5" class="stroke-sky-500" stroke="#003326" fill="none" stroke-width="1.5px"></path></svg>