<svg fill="#FFFFFF" xmlns="http://www.w3.org/2000/svg"  viewBox="0 0 50 50" width="100px" height="100px"><path d="M 25 2 C 22.788 2 21 3.788 21 6 C 21 6.319683 21.048567 6.6259743 21.119141 6.9238281 L 10.945312 12.310547 C 10.214286 11.510118 9.1715211 11 8 11 C 5.788 11 4 12.788 4 15 C 4 16.8551 5.2763474 18.409919 7 18.857422 L 7 31.142578 C 5.2764206 31.587904 4 33.135681 4 35 C 4 37.201 5.788 39 8 39 C 9.1715211 39 10.214286 38.489882 10.945312 37.689453 L 21.119141 43.076172 C 21.048567 43.374026 21 43.680317 21 44 C 21 46.212 22.788 48 25 48 C 27.212 48 29 46.201 29 44 C 29 43.680317 28.951433 43.374026 28.880859 43.076172 L 39.054688 37.689453 C 39.785714 38.489882 40.828479 39 42 39 C 44.212 39 46 37.201 46 35 C 46 33.135681 44.723579 31.587904 43 31.142578 L 43 18.857422 C 44.723653 18.409919 46 16.8551 46 15 C 46 12.788 44.212 11 42 11 C 40.828479 11 39.785714 11.510118 39.054688 12.310547 L 28.880859 6.9238281 C 28.951804 6.6260098 29 6.3189534 29 6 C 29 3.788 27.212 2 25 2 z M 22.054688 8.6894531 C 22.097766 8.7366217 22.132464 8.7908863 22.177734 8.8359375 L 9.0859375 31.167969 C 9.0569126 31.159764 9.0292907 31.148188 9 31.140625 L 9 18.857422 C 10.723579 18.412096 12 16.864319 12 15 C 12 14.680317 11.951433 14.374026 11.880859 14.076172 L 22.054688 8.6894531 z M 27.943359 8.6894531 L 38.119141 14.076172 C 38.048567 14.374026 38 14.680317 38 15 C 38 16.864319 39.276421 18.412096 41 18.857422 L 41 31.140625 C 40.970709 31.148188 40.943087 31.159764 40.914062 31.167969 L 27.820312 8.8339844 C 27.865175 8.7893146 27.900645 8.7361897 27.943359 8.6894531 z M 26.085938 9.8300781 L 39.177734 32.164062 C 38.678164 32.661212 38.324556 33.295677 38.142578 34 L 11.857422 34 C 11.675444 33.295677 11.321836 32.661212 10.822266 32.164062 L 23.914062 9.8320312 C 24.261437 9.9302299 24.620841 10 25 10 C 25.379287 10 25.738459 9.9288212 26.085938 9.8300781 z M 12.025391 36 L 37.974609 36 L 27.945312 41.310547 C 27.214286 40.510118 26.171521 40 25 40 C 23.828479 40 22.785714 40.510118 22.054688 41.310547 L 12.025391 36 z"/></svg>