<svg fill="#FFFFFF" xmlns="http://www.w3.org/2000/svg"  viewBox="0 0 24 24" width="96px" height="96px"><path d="M22.105 7.553c-.224.448-.523.723-.914.838-.612.183-1.343-.052-1.685-.253-.451-.265-.974-.667-1.527-1.092C16.214 5.688 14.018 4 11 4 8.586 4 7.346 5.239 5.293 7.293L6.7 8.714c.546-.425 4.031-.015 5.552 1.194C14.511 11.703 16.142 13 18 13c2.659 0 4.879-1.741 5.94-4.658L22.105 7.553zM16.192 15.391c-.614.18-1.343-.052-1.685-.253-.451-.265-.974-.667-1.527-1.092C11.214 12.688 9.018 11 6 11c-2.414 0-3.654 1.239-5.707 3.293L1.7 15.714c.545-.427 4.032-.014 5.552 1.194C9.511 18.703 11.142 20 13 20c2.659 0 4.879-1.741 5.94-4.658l-1.834-.789C16.881 15.001 16.583 15.275 16.192 15.391z"/></svg>